<svg version="1.1" id="Layer_1" xmlns:x="ns_extend;" xmlns:i="ns_ai;" xmlns:graph="ns_graphs;" xmlns="http://www.w3.org/2000/svg" xmlns:xlink="http://www.w3.org/1999/xlink" x="0px" y="0px" viewBox="0 0 336.8 50" style="enable-background:new 0 0 336.8 50;" xml:space="preserve">
 <style type="text/css">
  .st0{fill:#282C33;}
	.st1{fill:#F96B13;}
	.st2{fill:#CC4E00;}
	.st3{fill:#FFCA73;}
 </style>
 <metadata>
  <sfw xmlns="ns_sfw;">
   <slices>
   </slices>
   <sliceSourceBounds bottomLeftOrigin="true" height="50" width="336.8" x="-154.9" y="3">
   </sliceSourceBounds>
  </sfw>
 </metadata>
 <g>
  <path class="st0" d="M57.4,3.7h9.4v34h16.8V45H57.4V3.7z">
  </path>
  <path class="st0" d="M86.3,34.4V14.9h8.3v18.3c0,4.1,1.7,6.1,5.2,6.1c0.9,0,1.7-0.1,2.5-0.4c0.8-0.3,1.5-0.8,2.1-1.4
		c0.6-0.6,1.1-1.4,1.3-2.2c0.3-0.8,0.4-1.7,0.3-2.6V14.9h8.3v30.2h-8.3v-4.7c-0.9,1.7-2.3,3.2-4,4.1c-1.7,1-3.7,1.4-5.6,1.2
		C90.7,45.8,86.3,42.3,86.3,34.4z">
  </path>
  <path class="st0" d="M118.4,30.4v-0.5c-0.1-2.1,0.3-4.1,1-6.1c0.8-1.9,1.9-3.7,3.4-5.2c1.5-1.5,3.2-2.6,5.2-3.4
		c1.9-0.8,4-1.1,6.1-1c6.9,0,13.5,3.1,14.2,11.7h-8c0-0.7-0.2-1.5-0.6-2.2c-0.3-0.7-0.8-1.3-1.4-1.8c-0.6-0.5-1.2-0.9-2-1.1
		c-0.7-0.2-1.5-0.3-2.2-0.2c-4.3,0-7.2,3.2-7.2,9v0.5c0,6.1,2.7,9.2,7.4,9.2c0.8,0,1.6-0.1,2.4-0.3c0.8-0.3,1.5-0.7,2.1-1.2
		c0.6-0.5,1.1-1.2,1.4-1.9c0.3-0.7,0.5-1.5,0.6-2.3h7.6c-0.5,7.2-5.7,12.2-14.4,12.2C125.2,45.8,118.4,40.3,118.4,30.4z">
  </path>
  <path class="st0" d="M152.3,6.3c0-1,0.2-1.9,0.7-2.7c0.5-0.8,1.2-1.5,2.1-1.8c0.9-0.4,1.8-0.5,2.8-0.4c0.9,0.2,1.8,0.6,2.5,1.3
		c0.7,0.7,1.2,1.5,1.4,2.4c0.2,0.9,0.1,1.9-0.2,2.8c-0.4,0.9-1,1.6-1.8,2.2c-0.8,0.5-1.7,0.8-2.7,0.8c-0.6,0-1.2-0.1-1.8-0.3
		c-0.6-0.2-1.1-0.6-1.5-1c-0.4-0.4-0.8-0.9-1-1.5S152.3,6.9,152.3,6.3z M153,14.9h8.3v30.2H153V14.9z">
  </path>
  <path class="st0" d="M164.9,30.5V30c0-9.9,5.7-15.8,13.3-15.8c1.9-0.1,3.8,0.3,5.5,1.2c1.7,0.9,3.1,2.3,4,4V1.7h8.3v43.4h-8.3v-5
		c-1,1.7-2.4,3.2-4.1,4.2c-1.7,1-3.7,1.5-5.6,1.5C170.7,45.8,164.9,40.5,164.9,30.5z M187.5,30.2v-0.5c0-6-2.7-9.1-7.2-9.1
		c-4.6,0-7.3,3.2-7.3,9.2v0.5c0,6,2.9,8.9,7,8.9C184.2,39.2,187.5,36.3,187.5,30.2z">
  </path>
  <path class="st0" d="M199.7,30.4v-0.5c-0.1-2.1,0.3-4.1,1-6.1c0.8-1.9,1.9-3.7,3.4-5.2c1.5-1.5,3.2-2.6,5.2-3.4
		c1.9-0.8,4-1.1,6.1-1c6.9,0,13.5,3.1,14.2,11.7h-7.9c0-0.8-0.2-1.5-0.6-2.2c-0.3-0.7-0.8-1.3-1.4-1.8c-0.6-0.5-1.3-0.9-2-1.1
		c-0.7-0.2-1.5-0.3-2.3-0.2c-4.3,0-7.2,3.2-7.2,9v0.5c0,6.1,2.7,9.2,7.4,9.2c0.8,0,1.6-0.1,2.4-0.3c0.8-0.3,1.5-0.7,2.1-1.2
		c0.6-0.5,1.1-1.2,1.4-1.9c0.3-0.7,0.5-1.5,0.6-2.3h7.6c-0.5,7.2-5.7,12.2-14.4,12.2C206.3,45.8,199.7,40.3,199.7,30.4z">
  </path>
  <path class="st0" d="M233.4,1.7h8.4v18c0.9-1.8,2.4-3.2,4.1-4.2c1.7-1,3.7-1.4,5.7-1.3c6,0,10.2,3.6,10.2,11.7v19.2h-8.4v-18
		c0-4.1-1.6-6.1-5.3-6.1s-6.3,2.2-6.3,6.6v17.4h-8.4V1.7z">
  </path>
  <path class="st0" d="M265.4,36.8c0-7,6.5-9.7,15.6-9.7h3.5v-1.2c0-3.6-1.1-5.6-4.9-5.6c-0.6-0.1-1.3-0.1-1.9,0.1
		c-0.6,0.2-1.2,0.5-1.7,0.9c-0.5,0.4-0.9,0.9-1.2,1.5c-0.3,0.6-0.4,1.2-0.5,1.8h-7.9c0.5-7.2,6.2-10.4,13.6-10.4
		c7.4,0,12.6,3,12.6,11.2v19.8h-8.1v-3.6c-1,1.4-2.4,2.6-4,3.3c-1.6,0.7-3.4,1.1-5.1,0.9C270,45.8,265.4,43.1,265.4,36.8z
		 M284.5,34.6V32h-3.2c-4.9,0-7.7,1-7.7,4.3c0,2.2,1.3,3.6,4.4,3.6C281.7,39.9,284.5,37.9,284.5,34.6L284.5,34.6z">
  </path>
  <path class="st0" d="M298.2,14.9h8.4v5.8c0.8-1.9,2.1-3.6,3.9-4.7c1.8-1.1,3.8-1.7,5.9-1.6v7.8c-6.2,0-9.8,2-9.8,7.7v15.1h-8.4
		V14.9z">
  </path>
  <path class="st0" d="M321.9,36.2V20.8H318v-5.9h3.9V8.4h8.3v6.5h6.6v5.9h-6.6v14.5c0,2.4,1.2,3.6,3.4,3.6c1.1,0,2.2-0.3,3.3-0.8
		v6.9c-1.7,0.5-3.5,0.6-5.2,0.6C325.3,45.7,321.9,42.5,321.9,36.2z">
  </path>
  <path class="st1" d="M0,12.5v25L21.3,50v-6.2l-16-9.4V15.6L0,12.5z">
  </path>
  <path class="st2" d="M37.3,15.6v25l5.3-3.1v-25L37.3,15.6z">
  </path>
  <path class="st3" d="M16,3.1l21.3,12.5l5.3-3.1L21.3,0L16,3.1z">
  </path>
  <path class="st3" d="M0,12.5l5.3,3.1l5.3-3.1L5.3,9.4L0,12.5z">
  </path>
  <path class="st2" d="M5.3,15.6v18.7l5.3-3.1V12.5L5.3,15.6z">
  </path>
  <path class="st2" d="M21.3,43.8V50l5.3-3.1v-6.3L21.3,43.8z">
  </path>
  <path class="st3" d="M5.3,34.4l16,9.4l5.3-3.1l-16-9.4L5.3,34.4z">
  </path>
  <path class="st1" d="M16,3.1v6.3l16,9.4v18.8l5.3,3.1v-25L16,3.1z">
  </path>
 </g>
</svg>