<?xml version="1.0" encoding="UTF-8"?><svg id="Layer_1" xmlns="http://www.w3.org/2000/svg" xmlns:xlink="http://www.w3.org/1999/xlink" viewBox="0 0 18 18"><defs><style>.cls-1{fill:none;}.cls-2{fill:#50e6ff;}.cls-3{fill:#198ab3;}.cls-4{fill:url(#linear-gradient);}.cls-5{fill:#f2f2f2;}.cls-6{fill:#949494;}.cls-7{clip-path:url(#clippath);}.cls-8{fill:#e8e8e8;}</style><clipPath id="clippath"><rect class="cls-1" width="18" height="18"/></clipPath><linearGradient id="linear-gradient" x1="3.33" y1="436.38" x2="20.24" y2="436.38" gradientTransform="translate(-2 337.33) scale(.75 -.75)" gradientUnits="userSpaceOnUse"><stop offset="0" stop-color="#005ba1"/><stop offset=".07" stop-color="#0060a9"/><stop offset=".36" stop-color="#0071c8"/><stop offset=".52" stop-color="#0078d4"/><stop offset=".64" stop-color="#0074cd"/><stop offset=".82" stop-color="#006abb"/><stop offset="1" stop-color="#005ba1"/></linearGradient></defs><g class="cls-7"><path class="cls-4" d="M6.84,5.09C3.34,5.09.5,4.09.5,2.79v12.21c0,1.26,2.79,2.28,6.25,2.3h.09c3.5,0,6.34-1,6.34-2.3V2.79c0,1.27-2.84,2.3-6.34,2.3Z"/><path class="cls-8" d="M13.18,2.79c0,1.27-2.84,2.3-6.34,2.3S.5,4.06.5,2.79,3.34.49,6.84.49s6.34,1,6.34,2.3Z"/><path class="cls-2" d="M11.7,2.6c0,.81-2.18,1.46-4.86,1.46S2,3.41,2,2.6s2.16-1.46,4.84-1.46,4.86.66,4.86,1.46Z"/><path class="cls-3" d="M6.84,2.94c-1.3-.03-2.6.16-3.84.55,1.24.41,2.54.61,3.85.57,1.31.04,2.61-.16,3.85-.57-1.25-.39-2.55-.58-3.86-.55Z"/><path class="cls-5" d="M7.86,10.74c-.09.11-.21.2-.34.26-.13.06-.28.09-.42.09s-.29-.03-.42-.09c-.13-.06-.25-.15-.34-.26-.21-.29-.31-.64-.28-1-.03-.36.08-.71.29-1,.09-.12.21-.22.34-.28.14-.06.29-.09.44-.09.15,0,.29.03.42.09.13.06.24.16.33.28.2.29.29.65.27,1,.04.37-.06.73-.28,1.03v-.03ZM8.79,11c.23-.38.34-.82.33-1.27,0-.38-.08-.76-.25-1.1-.16-.31-.4-.57-.7-.75-.3-.17-.65-.26-1-.26-.38,0-.76.09-1.09.27-.31.18-.57.45-.73.77-.18.36-.27.75-.26,1.15,0,.36.08.72.24,1.05.15.31.39.57.68.75.3.18.65.28,1,.29l.85,1h1.19l-1.2-1.11c.4-.15.73-.43.94-.79ZM3.59,9.43c-.19-.08-.36-.18-.51-.31-.07-.09-.1-.21-.08-.32,0-.06.01-.12.04-.17.03-.05.07-.1.12-.14.13-.08.27-.12.42-.11.36-.01.71.09,1,.29v-.86c-.32-.12-.66-.17-1-.16-.43-.04-.86.09-1.2.35-.13.11-.24.25-.31.4-.07.16-.11.33-.1.5,0,.51.32.91,1,1.21.22.09.42.22.61.36.05.04.09.09.12.14.03.06.04.12.04.18,0,.06-.01.12-.04.17-.03.05-.07.1-.12.14-.13.09-.29.13-.45.12-.42,0-.83-.16-1.13-.45v.93c.33.16.7.24,1.07.23.42.02.83-.09,1.18-.32.14-.11.25-.25.33-.41.07-.16.11-.34.1-.51,0-.26-.08-.51-.25-.7-.24-.24-.52-.43-.84-.56ZM10.74,11.1v-3.38h-.93v4.14h2.46v-.76h-1.53Z"/><path class="cls-6" d="M13.61,15.13c-.2-.2-.32-.47-.32-.75,0-.28.11-.55.3-.76.2-.2.47-.32.75-.32.28,0,.55.11.76.3.1.1.18.21.23.34.05.13.08.27.09.41,0,.14-.02.28-.08.41-.05.13-.13.25-.23.35-.1.1-.21.18-.34.23-.13.05-.27.08-.41.09-.14,0-.28-.02-.41-.08-.13-.05-.25-.13-.35-.23ZM14.81,17.49l.24-.79.47-.27.81.36.52-.53v-.06l-.37-.71.22-.5.81-.29h.09v-.73h-.1l-.8-.24-.26-.46.35-.82-.53-.51h-.06l-.71.36-.49-.3-.32-.89h-.74v.11l-.24.79-.51.22-.87-.4-.51.53.05.1.38.74-.2.51-.94.29v.74h.11l.79.24.22.51-.39.86.53.52.09-.05.74-.38.51.2.34.89h.73l.04-.04Z"/></g></svg>